<svg width="100" height="200" fill="none" xmlns="http://www.w3.org/2000/svg"><path fill="#2C6269" d="M100 100H0V0h100z"/><path fill-rule="evenodd" clip-rule="evenodd" d="M100 200c55.228 0 100-44.772 100-100S155.228 0 100 0 0 44.772 0 100s44.772 100 100 100Zm0-67c18.225 0 33-14.775 33-33s-14.775-33-33-33-33 14.775-33 33 14.775 33 33 33Z" fill="#F67E7E"/><path fill-rule="evenodd" clip-rule="evenodd" d="M100 0H0v4h100V0Zm0 8H0v4h100V8ZM0 16h100v4H0v-4Zm100 8H0v4h100v-4ZM0 32h100v4H0v-4Zm100 8H0v4h100v-4Z" fill="#79C8C7"/></svg>