<svg width="100" height="226" fill="none" xmlns="http://www.w3.org/2000/svg"><path fill-rule="evenodd" clip-rule="evenodd" d="M200.5 100.5c0-55.228-44.772-100-100-100S.5 45.272.5 100.5s44.772 100 100 100 100-44.772 100-100Zm-67 0c0-18.225-14.775-33-33-33s-33 14.775-33 33 14.775 33 33 33 33-14.775 33-33Z" fill="#012F34"/><path fill="#79C8C7" d="M43.5.5v43H.5V.5z"/><path fill-rule="evenodd" clip-rule="evenodd" d="M200.5 124.987c0-55.229-44.772-100-100-100s-100 44.771-100 100c0 55.228 44.772 100 100 100s100-44.772 100-100Zm-67 0c0-18.226-14.775-33-33-33s-33 14.774-33 33c0 18.225 14.775 33 33 33s33-14.775 33-33Z" fill="#F67E7E"/></svg>